<?xml version="1.0" encoding="UTF-8" standalone="no"?>
<svg
   width="400"
   height="100"
   viewBox="0 0 400 100"
   version="1.1"
   id="svg2"
   sodipodi:docname="logo.svg"
   inkscape:version="1.4 (e7c3feb1, 2024-10-09)"
   xmlns:inkscape="http://www.inkscape.org/namespaces/inkscape"
   xmlns:sodipodi="http://sodipodi.sourceforge.net/DTD/sodipodi-0.dtd"
   xmlns="http://www.w3.org/2000/svg"
   xmlns:svg="http://www.w3.org/2000/svg">
  <defs
     id="defs2" />
  <sodipodi:namedview
     id="namedview2"
     pagecolor="#ffffff"
     bordercolor="#000000"
     borderopacity="0.25"
     inkscape:showpageshadow="2"
     inkscape:pageopacity="0.0"
     inkscape:pagecheckerboard="0"
     inkscape:deskcolor="#d1d1d1"
     inkscape:zoom="0.26"
     inkscape:cx="200"
     inkscape:cy="48.076923"
     inkscape:window-width="1920"
     inkscape:window-height="1080"
     inkscape:window-x="1440"
     inkscape:window-y="0"
     inkscape:window-maximized="0"
     inkscape:current-layer="svg2" />
  <path
     d="m 51.079384,39.865791 q 0,5.859509 -4.557396,8.952028 -4.557396,3.038264 -13.238149,3.038264 h -4.611652 v 9.54883 q 0,2.061678 0.271275,3.363791 0.271273,1.247859 1.139348,1.95317 0.868076,0.705311 2.387208,0.92233 1.519132,0.217019 4.069103,0.217019 v 2.170189 H 15 v -2.170189 q 1.790405,-0.05424 2.929755,-0.325528 1.139349,-0.271273 1.736151,-0.92233 0.596801,-0.651056 0.81382,-1.844661 0.217018,-1.193603 0.217018,-3.092518 V 36.610509 q 0,-1.898915 -0.217018,-3.038264 -0.162764,-1.193604 -0.705311,-1.844661 -0.542547,-0.705311 -1.573387,-0.92233 -0.976585,-0.271273 -2.604226,-0.379783 v -2.170188 h 18.772131 q 8.246716,0 12.478583,2.929755 4.231868,2.929754 4.231868,8.680753 z M 28.672187,48.6008 h 3.526557 q 5.262707,0 7.704169,-2.115934 2.441463,-2.115933 2.441463,-6.673329 0,-4.069104 -2.06168,-6.293548 -2.061679,-2.224442 -6.456311,-2.224442 h -4.177612 q -0.976586,0 -0.976586,0.922329 z M 65.40268,61.133638 q 0,2.170189 0.162765,3.472302 0.162763,1.302113 0.651056,2.007425 0.488292,0.705311 1.410622,0.976584 0.92233,0.217019 2.495717,0.271274 v 2.170189 H 53.032606 v -2.170189 q 1.519132,-0.05424 2.441462,-0.325528 0.976584,-0.325529 1.464877,-0.976585 0.542547,-0.705311 0.705311,-1.898915 0.217019,-1.247858 0.217019,-3.146773 V 39.106225 q 0,-3.146773 -0.10851,-5.154198 -0.108509,-2.061678 -0.271273,-2.821245 -0.271273,-1.356367 -1.247859,-1.790405 -0.92233,-0.434038 -3.418046,-0.434038 V 27.06168 L 65.40268,25 Z M 96.49061,50.174187 q 0,-2.170189 -0.10851,-3.418047 -0.10851,-1.302113 -0.59681,-1.95317 -0.48829,-0.705312 -1.464873,-0.92233 -0.92233,-0.271274 -2.549971,-0.434038 v -2.170189 h 12.261574 v 16.439178 q 0,3.309539 0.0543,5.208454 0.10851,1.844659 0.32554,2.766989 0.16276,0.705312 0.37977,1.13935 0.21703,0.379782 0.70533,0.651056 0.48829,0.217019 1.30211,0.325528 0.86808,0.05425 2.22443,0.05425 v 2.115934 l -10.79668,0.651056 -0.5968,-4.82867 H 97.413 q -1.41062,2.278699 -3.960592,3.526556 -2.549971,1.247859 -5.696743,1.247859 -5.805254,0 -8.843519,-4.123358 -2.332953,-3.146773 -2.332953,-8.952027 V 50.17419 q 0,-2.224444 -0.108509,-3.472303 -0.10851,-1.302112 -0.596801,-1.953169 -0.434039,-0.651057 -1.356368,-0.868075 -0.922332,-0.271274 -2.549971,-0.434038 V 41.276413 H 84.12055 v 15.354084 q 0,5.479727 1.356368,7.975443 1.356368,2.441463 4.340377,2.441463 3.201028,0 4.937179,-2.929755 1.736146,-2.821245 1.736146,-8.300971 z m 14.59449,-5.913764 v -2.441462 q 3.25529,-0.92233 5.42548,-2.76699 2.22444,-1.898916 3.30953,-4.340377 h 2.767 v 6.564819 h 6.23929 v 2.98401 h -6.23929 V 60.91662 q 0,3.363792 0.70531,4.774414 0.75956,1.410623 2.49571,1.410623 2.11594,0 3.20104,-1.953169 l 1.13934,1.573386 q -1.51913,3.852085 -7.16162,3.852085 -3.74358,0 -5.85951,-1.736151 -2.06168,-1.736151 -2.06168,-4.882925 v -19.69446 z m 37.16449,-3.526556 q 3.25528,0 6.13077,1.139349 2.92976,1.085094 5.09995,3.038263 2.22445,1.95317 3.4723,4.665906 1.30212,2.658481 1.30212,5.859509 0,3.309537 -1.30212,6.076528 -1.24785,2.76699 -3.4723,4.774414 -2.17019,2.007424 -5.09995,3.146774 -2.87549,1.139349 -6.13077,1.139349 -3.20103,0 -6.07653,-1.085094 -2.87551,-1.139349 -5.04569,-3.146774 -2.17019,-2.007424 -3.41805,-4.774415 -1.24786,-2.821245 -1.24786,-6.130782 0,-3.201028 1.24786,-5.913763 1.24786,-2.712736 3.41805,-4.665906 2.17018,-1.95317 5.04569,-3.038264 2.8755,-1.085094 6.07653,-1.085094 z m 0,3.146773 q -1.62764,0 -2.98402,0.868075 -1.35636,0.813821 -2.33295,2.332953 -0.92232,1.519132 -1.46488,3.68932 -0.48829,2.115934 -0.48829,4.72016 0,2.712737 0.48829,4.882925 0.54256,2.170188 1.46488,3.68932 0.97659,1.519132 2.2787,2.387208 1.35637,0.813821 3.03827,0.813821 1.68189,0 3.03826,-0.813821 1.41063,-0.868076 2.38721,-2.387208 0.97659,-1.573386 1.51913,-3.743574 0.54255,-2.17019 0.54255,-4.828671 0,-2.604226 -0.54255,-4.72016 -0.54254,-2.115933 -1.51913,-3.635065 -0.97658,-1.573387 -2.38721,-2.387208 -1.35637,-0.868075 -3.03826,-0.868075 z m 31.95601,17.307254 q 0,2.224443 0.10851,3.526556 0.16277,1.247859 0.5968,1.95317 0.48829,0.651056 1.41062,0.868075 0.97659,0.217019 2.60423,0.325528 v 2.170189 h -17.09023 v -2.170189 q 1.57338,-0.108509 2.49571,-0.325528 0.97658,-0.217019 1.46488,-0.868075 0.54255,-0.651057 0.70531,-1.844661 0.16277,-1.193603 0.16277,-3.255283 v -6.781839 q 0,-3.201028 -0.10851,-5.154197 -0.10851,-2.007425 -0.27128,-2.712736 -0.16276,-0.705312 -0.43403,-1.139349 -0.27128,-0.488292 -0.81383,-0.705311 -0.54254,-0.271274 -1.35636,-0.325529 -0.81383,-0.108509 -2.06168,-0.108509 v -1.844661 l 10.47116,-2.061678 0.70531,4.774414 h 0.21702 q 1.7904,-2.278698 4.23187,-3.526556 2.44146,-1.247858 5.37121,-1.247858 3.4723,0 5.58824,0.976584 2.17019,0.922331 3.85208,3.146774 0.92233,1.247859 1.62764,3.255283 0.70532,1.953169 0.70532,5.425471 v 7.649915 q 0,2.224443 0.1085,3.526556 0.16277,1.247859 0.5968,1.95317 0.48829,0.651056 1.41063,0.868075 0.92233,0.217019 2.49571,0.325528 v 2.170189 h -16.98172 v -2.170189 q 1.62764,-0.05424 2.54997,-0.271274 0.97659,-0.271273 1.46488,-0.922329 0.48829,-0.651057 0.65105,-1.844661 0.16277,-1.247858 0.16277,-3.255283 v -7.378641 q 0,-2.76699 -0.32553,-4.665904 -0.32553,-1.898916 -1.08509,-3.038265 -0.70532,-1.193603 -1.89892,-1.681896 -1.19361,-0.542547 -2.98401,-0.542547 -1.73615,0 -2.98401,0.976585 -1.24786,0.976584 -2.17019,2.712735 -0.48829,0.976586 -0.86807,2.549972 -0.32553,1.519132 -0.32553,3.201028 z"
     id="text1"
     style="font-weight:bold;font-size:48px;font-family:'Libre Baskerville', serif;fill:#2f2f41;stroke-width:1.13031"
     aria-label="Pluton" />
  <path
     d="m 229.56402,28.371201 q 3.64753,0 5.96868,1.105312 2.37641,1.050046 4.20018,2.486951 1.10532,0.828983 1.65797,0.221063 0.60792,-0.663188 0.82899,-3.039608 h 1.2711 q -0.11053,2.155359 -0.16579,5.25023 -0.0552,3.039609 -0.0552,8.124044 h -1.27112 q -0.27632,-2.542218 -0.71845,-4.310717 -0.44212,-1.823765 -1.21584,-3.205405 -0.77372,-1.381639 -2.21063,-2.486951 -1.38163,-1.381639 -3.2054,-2.044827 -1.82376,-0.663186 -3.81332,-0.663186 -2.98434,0 -5.08443,1.602701 -2.1001,1.547437 -3.42648,4.255451 -1.2711,2.708013 -1.87902,6.134481 -0.60793,3.3712 -0.60793,7.018728 0,3.702795 0.60793,7.129261 0.66318,3.371201 1.98956,6.02395 1.38163,2.652748 3.53699,4.200185 2.15537,1.547436 5.08443,1.547436 1.82377,0 3.64754,-0.663187 1.87903,-0.718452 3.20539,-2.044827 2.15537,-1.657967 2.92909,-4.089654 0.77371,-2.486951 1.16057,-6.576605 h 1.27112 q 0,5.250231 0.0552,8.510901 0.0552,3.205404 0.16579,5.416028 h -1.2711 q -0.22107,-2.376421 -0.77372,-2.984342 -0.49738,-0.607922 -1.71324,0.165797 -2.04482,1.436906 -4.36597,2.542217 -2.26589,1.050046 -5.85816,1.050046 -5.85815,0 -10.2794,-2.37642 -4.36598,-2.376421 -6.79766,-6.852934 Q 210,55.340808 210,49.040531 q 0,-6.189746 2.48696,-10.832055 2.54221,-4.642309 6.9082,-7.239793 4.42123,-2.597482 10.16886,-2.597482 z m 25.97482,40.288614 q -2.48695,0 -4.14491,-0.939515 -1.65796,-0.939515 -2.43169,-2.486951 -0.77371,-1.602702 -0.77371,-3.481732 0,-2.37642 1.05004,-3.868592 1.1053,-1.49217 2.81854,-2.431686 1.71323,-0.939515 3.59226,-1.547436 1.9343,-0.607922 3.64753,-1.160577 1.76851,-0.607921 2.81855,-1.381641 1.10531,-0.828982 1.10531,-2.100091 v -4.310716 q 0,-1.436906 -0.49739,-2.542217 -0.44212,-1.160578 -1.43691,-1.7685 -0.9395,-0.60792 -2.48694,-0.60792 -1.10531,0 -2.21062,0.331593 -1.10532,0.276327 -1.82377,0.99478 1.54743,0.552657 2.37642,1.713233 0.88425,1.105312 0.88425,2.542217 0,1.879031 -1.32637,2.984342 -1.27112,1.105312 -3.03962,1.105312 -1.98955,0 -3.0396,-1.215843 -0.99478,-1.271109 -0.99478,-3.039607 0,-1.602703 0.77371,-2.652748 0.829,-1.050047 2.26589,-1.989562 1.54745,-0.884249 3.7028,-1.381639 2.21063,-0.49739 4.75284,-0.49739 2.54222,0 4.58705,0.552655 2.04482,0.497391 3.42647,1.87903 1.2711,1.271108 1.65796,3.150138 0.38686,1.823765 0.38686,4.64231 v 15.03224 q 0,1.38164 0.27632,1.934296 0.27633,0.49739 0.93952,0.49739 0.4974,0 0.93951,-0.276327 0.49739,-0.276329 1.05006,-0.663188 l 0.55265,0.939515 q -1.16058,0.994781 -2.70802,1.547437 -1.49217,0.49739 -3.3712,0.49739 -2.04482,0 -3.26067,-0.552655 -1.21585,-0.607922 -1.76849,-1.602703 -0.49739,-0.994781 -0.49739,-2.321155 -1.32638,2.100093 -3.20541,3.315936 -1.87903,1.160577 -4.58705,1.160577 z m 3.92386,-3.536997 q 1.10532,0 1.98957,-0.497391 0.93951,-0.552656 1.76849,-1.768499 V 51.527483 q -0.49739,0.828983 -1.38163,1.492171 -0.88426,0.663187 -1.87903,1.38164 -0.99479,0.663186 -1.9343,1.49217 -0.88425,0.828984 -1.4369,2.044827 -0.55267,1.215843 -0.55267,2.929076 0,2.155358 0.93953,3.205404 0.9395,1.050047 2.48694,1.050047 z m 28.35122,-26.030093 v 33.712008 q 0,2.597484 1.32638,3.426468 1.32638,0.884249 3.64753,0.884249 v 1.160577 q -1.43691,-0.05526 -3.97913,-0.165796 -2.48695,-0.05526 -5.30549,-0.05526 -2.04483,0 -4.03439,0.05526 -1.93429,0.110531 -2.92907,0.165796 V 77.11545 q 1.82376,0 2.54221,-0.773717 0.77372,-0.773719 0.77372,-2.984343 V 45.724596 q 0,-2.486952 -0.77372,-3.647529 -0.77371,-1.215843 -2.76327,-1.215843 v -1.160578 q 1.76849,0.165797 3.42647,0.165797 2.26589,0 4.31071,-0.165797 2.04482,-0.221062 3.75805,-0.607921 z m 8.56617,-0.165796 q 2.81855,0 5.02918,1.547436 2.21062,1.492171 3.53699,4.587043 1.32637,3.039608 1.32637,7.626651 0,4.034389 -0.93951,7.073997 -0.88425,3.039607 -2.59749,5.139699 -1.65796,2.044826 -4.03439,3.094873 -2.32115,1.050046 -5.25022,1.050046 -2.15537,0 -3.92387,-0.773718 -1.76849,-0.718453 -2.70801,-2.100092 l 0.55267,-0.718453 q 0.55264,0.99478 1.54743,1.547436 1.05005,0.552656 2.37641,0.552656 2.48695,0 3.92386,-1.657968 1.43691,-1.713233 2.04483,-4.75284 0.66319,-3.094873 0.66319,-7.350323 0,-4.752841 -0.60792,-7.460855 -0.60793,-2.708014 -1.65796,-3.868591 -1.05005,-1.160577 -2.54223,-1.160577 -1.98955,0 -3.64753,1.547436 -1.6027,1.547437 -1.82376,4.421248 l -0.27632,-1.934296 q 0.99477,-3.150139 3.3712,-4.752841 2.43168,-1.657967 5.63708,-1.657967 z m 20.50356,-13.484804 q 2.32116,0 3.64753,1.160577 1.38164,1.105312 1.38164,3.094874 0,1.98956 -1.38164,3.150138 -1.32637,1.105312 -3.64753,1.105312 -2.32116,0 -3.70279,-1.105312 -1.32638,-1.160578 -1.32638,-3.150138 0,-1.989562 1.32638,-3.094874 1.38163,-1.160577 3.70279,-1.160577 z m 4.31072,13.6506 v 24.040532 q 0,2.321154 0.77371,3.150138 0.82899,0.828983 2.76328,0.828983 v 1.160578 q -0.99478,-0.05526 -3.09487,-0.110531 -2.10009,-0.110532 -4.25545,-0.110532 -2.15536,0 -4.36599,0.110532 -2.21061,0.05527 -3.31592,0.110531 v -1.160578 q 1.93429,0 2.708,-0.828983 0.82899,-0.828984 0.82899,-3.150138 V 45.724596 q 0,-2.486952 -0.77372,-3.647529 -0.71845,-1.215843 -2.76327,-1.215843 v -1.160578 q 1.76849,0.165797 3.42646,0.165797 2.32116,0 4.31072,-0.165797 2.04482,-0.221062 3.75806,-0.607921 z m 17.13236,-8.455636 v 9.063557 h 6.52135 v 1.105312 h -6.52135 v 22.327299 q 0,1.657966 0.60792,2.376419 0.60793,0.663188 1.82377,0.663188 0.99478,0 1.98956,-0.718453 0.99479,-0.773719 1.7685,-2.597483 l 0.93951,0.497391 q -0.88425,2.486952 -2.70801,4.089653 -1.76851,1.602702 -4.86337,1.602702 -1.82377,0 -3.2054,-0.497391 -1.38164,-0.442123 -2.32116,-1.381639 -1.21585,-1.215843 -1.60271,-2.984342 -0.38686,-1.823764 -0.38686,-4.697575 V 40.805958 h -4.6423 v -1.105312 h 4.6423 v -7.295058 q 2.32116,0 4.25546,-0.386858 1.98956,-0.442125 3.70279,-1.381641 z m 15.86118,38.022726 q -2.48696,0 -4.14492,-0.939515 -1.65796,-0.939515 -2.43169,-2.486951 -0.77372,-1.602702 -0.77372,-3.481732 0,-2.37642 1.05006,-3.868592 1.1053,-1.49217 2.81854,-2.431686 1.71323,-0.939515 3.59226,-1.547436 1.9343,-0.607922 3.64753,-1.160577 1.7685,-0.607921 2.81854,-1.381641 1.10532,-0.828982 1.10532,-2.100091 v -4.310716 q 0,-1.436906 -0.49739,-2.542217 -0.44214,-1.160578 -1.43691,-1.7685 -0.93952,-0.60792 -2.48696,-0.60792 -1.1053,0 -2.21061,0.331593 -1.10531,0.276327 -1.82377,0.99478 1.54744,0.552657 2.37642,1.713233 0.88425,1.105312 0.88425,2.542217 0,1.879031 -1.32637,2.984342 -1.27112,1.105312 -3.03961,1.105312 -1.98956,0 -3.0396,-1.215843 -0.99479,-1.271109 -0.99479,-3.039607 0,-1.602703 0.77372,-2.652748 0.82898,-1.050047 2.26589,-1.989562 1.54744,-0.884249 3.7028,-1.381639 2.21062,-0.49739 4.75283,-0.49739 2.54222,0 4.58705,0.552655 2.04482,0.497391 3.42647,1.87903 1.27111,1.271108 1.65796,3.150138 0.38686,1.823765 0.38686,4.64231 v 15.03224 q 0,1.38164 0.27633,1.934296 0.27632,0.49739 0.93952,0.49739 0.49738,0 0.93951,-0.276327 0.49739,-0.276329 1.05004,-0.663188 l 0.55266,0.939515 q -1.16057,0.994781 -2.70801,1.547437 -1.49217,0.49739 -3.3712,0.49739 -2.04483,0 -3.26068,-0.552655 -1.21584,-0.607922 -1.76849,-1.602703 -0.49739,-0.994781 -0.49739,-2.321155 -1.32638,2.100093 -3.20541,3.315936 -1.87902,1.160577 -4.58704,1.160577 z m 3.92386,-3.536997 q 1.10531,0 1.98956,-0.497391 0.93951,-0.552656 1.7685,-1.768499 V 51.527483 q -0.49739,0.828983 -1.38164,1.492171 -0.88425,0.663187 -1.87903,1.38164 -0.99478,0.663186 -1.9343,1.49217 -0.88425,0.828984 -1.4369,2.044827 -0.55266,1.215843 -0.55266,2.929076 0,2.155358 0.93952,3.205404 0.93951,1.050047 2.48695,1.050047 z M 386.46301,25 v 38.133257 q 0,2.321154 0.77372,3.150138 0.82897,0.828983 2.76327,0.828983 v 1.160578 q -1.05004,-0.05526 -3.15013,-0.110531 -2.1001,-0.110532 -4.25547,-0.110532 -2.15535,0 -4.36597,0.110532 -2.15536,0.05527 -3.26068,0.110531 v -1.160578 q 1.93431,0 2.70803,-0.828983 0.82898,-0.828984 0.82898,-3.150138 V 31.631871 q 0,-2.486952 -0.77372,-3.647529 -0.71845,-1.215843 -2.76329,-1.215843 v -1.160577 q 1.7685,0.165796 3.42648,0.165796 2.26588,0 4.31071,-0.165796 Q 384.74977,25.386859 386.46301,25 Z"
     id="text2"
     style="font-weight:bold;font-size:48px;font-family:'Playfair Display', serif;-inkscape-font-specification:'Playfair Display, serif, Bold';fill:#1d5e8a;fill-opacity:1;stroke-width:1.15137"
     aria-label="Capital" />
</svg>
