<?xml version="1.0" encoding="UTF-8" standalone="no"?>
<svg
   width="32px"
   height="32px"
   viewBox="0 0 32 32"
   version="1.1"
   id="svg1"
   sodipodi:docname="favicon-32x32.svg"
   inkscape:version="1.4 (e7c3feb1, 2024-10-09)"
   xmlns:inkscape="http://www.inkscape.org/namespaces/inkscape"
   xmlns:sodipodi="http://sodipodi.sourceforge.net/DTD/sodipodi-0.dtd"
   xmlns="http://www.w3.org/2000/svg"
   xmlns:svg="http://www.w3.org/2000/svg">
  <defs
     id="defs1" />
  <sodipodi:namedview
     id="namedview1"
     pagecolor="#ffffff"
     bordercolor="#000000"
     borderopacity="0.25"
     inkscape:showpageshadow="2"
     inkscape:pageopacity="0.0"
     inkscape:pagecheckerboard="0"
     inkscape:deskcolor="#d1d1d1"
     inkscape:zoom="2.32"
     inkscape:cx="15.948276"
     inkscape:cy="15.732759"
     inkscape:window-width="1920"
     inkscape:window-height="1080"
     inkscape:window-x="1440"
     inkscape:window-y="0"
     inkscape:window-maximized="0"
     inkscape:current-layer="svg1" />
  <title
     id="title1">Group</title>
  <rect
     style="fill:#e0115f"
     id="rect1"
     width="68.103447"
     height="63.793102"
     x="-20.258621"
     y="-16.810345" />
  <path
     d="m 6.6914484,4.9302064 q 0.8,0.032 2.144,0.064 1.3759996,0.032 2.7199996,0.032 1.536,0 2.976,-0.032 1.44,-0.032 2.048,-0.032 4.448,0 6.656,1.76 2.208,1.76 2.208,4.5439996 0,1.152 -0.448,2.432 -0.448,1.248 -1.536,2.336 -1.056,1.056 -2.912,1.728 -1.856,0.672 -4.672,0.672 h -3.264 v -0.64 h 2.944 q 1.888,0 2.848,-0.864 0.992,-0.864 1.344,-2.272 0.384,-1.408 0.384,-3.04 0,-3.0399996 -0.896,-4.5439996 -0.896,-1.504 -3.072,-1.504 -1.248,0 -1.632,0.544 -0.352,0.544 -0.352,2.208 V 24.002206 q 0,1.248 0.256,1.856 0.256,0.608 0.992,0.8 0.736,0.192 2.176,0.224 v 0.704 q -0.992,-0.032 -2.56,-0.064 -1.568,-0.032 -3.296,-0.032 -1.376,0 -2.6879996,0.032 -1.312,0.032 -2.368,0.064 v -0.64 q 1.024,-0.064 1.536,-0.256 0.512,-0.192 0.672,-0.768 0.192,-0.576 0.192,-1.728 V 8.3222064 q 0,-1.184 -0.192,-1.728 -0.16,-0.576 -0.704,-0.768 -0.512,-0.224 -1.504,-0.256 z"
     id="text1"
     style="font-weight:bold;font-size:32px;font-family:'Playfair Display', serif;-inkscape-font-specification:'Playfair Display, serif, Bold';fill:#ffffff"
     aria-label="P" />
</svg>
